<svg width="264" height="110" viewBox="0 0 264 110" fill="none" xmlns="http://www.w3.org/2000/svg">
<circle cx="55.7148" cy="25.0998" r="17.7483" transform="rotate(-45 55.7148 25.0998)" fill="#D86666"/>
<circle cx="25.0998" cy="54.0441" r="17.7483" transform="rotate(-45 25.0998 54.0441)" fill="#D9D9D9"/>
<circle cx="54.2719" cy="84.9002" r="17.7483" transform="rotate(-45 54.2719 84.9002)" fill="#CDB72B"/>
<circle cx="84.8872" cy="55.9559" r="17.7483" transform="rotate(-45 84.8872 55.9559)" fill="#728AC6"/>
<path d="M86.52 92.72V92.76C90.68 97.16 94.84 101.6 99 106.04H94.88L83.12 93.48V106.04H80.12V79.64H83.12V92L94.72 79.64H98.84L86.52 92.72ZM113.377 79.64L121.337 106.04H118.257L116.537 100.36H105.577L103.857 106.04H100.817L108.737 79.64H113.377ZM106.377 97.72H115.737L111.057 82.16L106.377 97.72ZM139.122 79.64H142.122V106.04H141.882H139.122H138.402L126.362 84.44V106.04H123.362V79.64H123.642H126.362H127.082L139.122 101.12V79.64ZM160.573 92.08C163.013 93.28 164.733 95.8 164.733 98.68C164.733 102.72 161.413 106.04 157.373 106.04H144.573V79.64H155.333C159.373 79.64 162.653 82.92 162.653 87C162.653 88.96 161.853 90.76 160.573 92.08ZM147.533 82.64V91.32H155.333C157.733 91.32 159.693 89.4 159.693 87C159.693 84.6 157.733 82.64 155.333 82.64H147.533ZM157.373 103.04C159.773 103.04 161.733 101.08 161.733 98.68C161.733 96.28 159.773 94.32 157.373 94.32H147.533V103.04H157.373ZM177.361 79.64L185.321 106.04H182.241L180.521 100.36H169.561L167.841 106.04H164.801L172.721 79.64H177.361ZM170.361 97.72H179.721L175.041 82.16L170.361 97.72ZM203.107 79.64H206.107V106.04H205.867H203.107H202.387L190.347 84.44V106.04H187.347V79.64H187.627H190.347H191.067L203.107 101.12V79.64ZM208.558 106.04V79.64H211.478V106.04H208.558ZM231.429 82.64H216.869V91.32H229.229V94.32H216.869V106.04H213.909V79.64H231.429V82.64ZM253.237 79.64L244.797 96.08L244.757 96.16V106.04H241.757V96.16L233.317 79.64H236.637L243.197 92.44H243.317L249.877 79.64H253.237Z" fill="white"/>
</svg>
